<svg width="16" height="9" viewBox="0 0 16 9" fill="none" xmlns="http://www.w3.org/2000/svg">
<path d="M0.565512 0.00523066C0.499886 -0.00561808 0.433324 0.000408888 0.369572 0.023312C0.104252 0.114926 -0.0541728 0.466908 0.0170595 0.809256C0.318932 2.25817 1.18426 3.81679 2.49387 5.03537L1.57418 6.22029C1.37825 6.47102 1.37825 6.87845 1.57418 7.12918C1.76918 7.38111 2.08793 7.38111 2.28293 7.12918L3.36106 5.74294C4.50762 6.5602 5.90363 7.11832 7.49363 7.21716V8.36474C7.49645 8.71792 7.72051 9.0012 7.99519 9C8.26987 9.0012 8.49393 8.71793 8.49674 8.36474V7.21716C10.0755 7.11952 11.4648 6.56742 12.6077 5.76099L13.6718 7.12915C13.8668 7.38108 14.1855 7.38108 14.3805 7.12915C14.5765 6.87842 14.5765 6.47099 14.3805 6.22026L13.4758 5.05704C14.8005 3.83475 15.678 2.26527 15.9817 0.807776L15.9836 0.808981C16.0173 0.643837 15.9986 0.467836 15.932 0.320794C15.8654 0.173733 15.7558 0.0664491 15.6273 0.0230554C15.3611 -0.0685583 15.0883 0.135159 15.0161 0.477513C14.5651 2.64004 11.9251 5.94416 7.99413 5.94416C4.06315 5.94416 1.43347 2.63887 0.982504 0.477513H0.983441C0.930941 0.225578 0.765941 0.038731 0.565312 0.00500229L0.565512 0.00523066Z" fill="#999999"/>
</svg>
