<svg width="20" height="21" viewBox="0 0 20 21" fill="none" xmlns="http://www.w3.org/2000/svg">
<path d="M12.8095 10.4998L19.7989 3.16056C20.067 2.87908 20.067 2.42297 19.7989 2.14173L17.9601 0.210931C17.6923 -0.0703103 17.2579 -0.0703103 16.9898 0.210931L10.0001 7.55016L3.01044 0.210931C2.74259 -0.0703103 2.30798 -0.0703103 2.0399 0.210931L0.201058 2.14173C-0.0670194 2.42297 -0.0670194 2.87908 0.201058 3.16056L7.19074 10.4998L0.20129 17.8393C-0.0670194 18.1207 -0.0670194 18.5768 0.20129 18.8581L2.0399 20.7889C2.30798 21.0704 2.74259 21.0704 3.01044 20.7889L10.0001 13.4499L16.9896 20.7889C17.2576 21.0704 17.692 21.0704 17.9599 20.7889L19.7987 18.8581C20.0668 18.5768 20.0668 18.1207 19.7987 17.8393L12.8095 10.4998Z" fill="#FFFBFB"/>
</svg>
