<svg width="19" height="21" viewBox="0 0 19 21" fill="none" xmlns="http://www.w3.org/2000/svg">
<path d="M15.6045 10.9666C15.504 10.9666 15.4244 11.0377 15.4244 11.1288V14.6677H3.57837V3.99881H7.50791C7.60845 3.99881 7.68807 3.92771 7.68807 3.83656C7.68807 3.74602 7.60913 3.67432 7.50791 3.67432L3.3989 3.67492C3.29837 3.67492 3.21875 3.74602 3.21875 3.83717V14.83C3.21875 14.9205 3.29769 14.9922 3.3989 14.9922H15.6052C15.7057 14.9922 15.7853 14.9211 15.7853 14.83L15.7847 11.1288C15.7847 11.0377 15.7057 10.9666 15.6045 10.9666Z" fill="#B5B1B1"/>
<path d="M15.4777 3.72359L9.68062 8.94139V5.26281C9.68062 5.17227 9.60168 5.10057 9.50047 5.10057C9.39993 5.10057 9.32031 5.17166 9.32031 5.26281V9.33339C9.32031 9.35587 9.32369 9.37532 9.33448 9.39476C9.3527 9.43365 9.38846 9.46585 9.43164 9.48226C9.45323 9.49198 9.4782 9.49502 9.49979 9.49502H14.0197C14.1202 9.49502 14.1999 9.42393 14.1999 9.33278C14.1999 9.24224 14.1209 9.17053 14.0197 9.17053L9.93558 9.17114L15.7294 3.95038C15.8016 3.88537 15.8016 3.78511 15.7294 3.72008C15.6572 3.65567 15.5458 3.65857 15.4777 3.72359Z" fill="#B5B1B1"/>
</svg>
