<svg width="25" height="25" viewBox="0 0 94 93" fill="none" xmlns="http://www.w3.org/2000/svg">
<path fill-rule="evenodd" clip-rule="evenodd" d="M42.2626 56.738L36.4657 77.519C33.7626 87.2104 42.4384 89.652 46.3095 83.3315L67.8445 48.1715V6.19449H18.7855C16.5707 6.19449 14.4808 7.50699 14.0433 9.72569L6.82852 46.4487C6.49258 48.1479 6.63321 49.5854 7.66055 50.9448H7.66446C8.64884 52.226 9.94966 52.8628 11.5747 52.8628H39.5627C41.5744 52.8628 42.9462 54.8747 42.2626 56.738ZM73.6026 46.086H83.3135C84.4151 46.086 85.419 45.6368 86.1455 44.9141L86.1377 44.9063C86.8643 44.1797 87.3174 43.1797 87.3174 42.0821V10.2031C87.3174 7.99218 85.5244 6.19918 83.3135 6.19918H73.6026L73.6026 46.086ZM83.3135 51.8438H72.3295L51.2165 86.3208C43.9118 98.2468 26.4275 92.1411 30.9355 75.9848L35.7793 58.6218H11.5723C8.18172 58.6218 5.17002 57.1296 3.09572 54.4304H3.09963C1.05663 51.7663 0.548827 48.5749 1.18553 45.3484L8.40033 8.62939C9.36908 3.69189 13.8691 0.437988 18.7913 0.437988H83.3183C88.6816 0.437988 93.0839 4.84029 93.0839 10.2036V42.0826C93.0839 44.7701 91.9862 47.2115 90.2167 48.981L90.2089 48.9732C88.4355 50.7466 85.998 51.8443 83.3144 51.8443L83.3135 51.8438Z" fill="#FFFBFB"/>
</svg>
