<svg width="23" height="27" viewBox="0 0 23 27" fill="none" xmlns="http://www.w3.org/2000/svg">
<path d="M20.763 21.0602H2.23621C2.04164 21.0602 1.88379 20.912 1.88379 20.7292C1.88379 15.7499 6.19748 11.6987 11.4996 11.6987C16.8017 11.6987 21.1154 15.7499 21.1154 20.7292C21.1154 20.912 20.9576 21.0602 20.763 21.0602ZM2.59551 20.3983H20.4037C20.2179 15.9369 16.2949 12.3607 11.4996 12.3607C6.70432 12.3607 2.78136 15.9369 2.59551 20.3983Z" fill="#999999"/>
<path d="M11.4999 11.2629C8.35202 11.2629 5.79102 8.85776 5.79102 5.90146C5.79102 2.94516 8.35202 0.540039 11.4999 0.540039C14.6478 0.540039 17.2089 2.94516 17.2089 5.90146C17.2089 8.85776 14.6478 11.2629 11.4999 11.2629ZM11.4999 1.20197C8.74069 1.20197 6.49585 3.31017 6.49585 5.90146C6.49585 8.49275 8.74069 10.6009 11.4999 10.6009C14.2592 10.6009 16.504 8.49275 16.504 5.90146C16.504 3.31017 14.2592 1.20197 11.4999 1.20197Z" fill="#999999"/>
</svg>
