<svg width="25" height="25" viewBox="0 0 94 93" fill="none" xmlns="http://www.w3.org/2000/svg">
<path fill-rule="evenodd" clip-rule="evenodd" d="M51.7372 36.262L57.5341 15.481C60.2372 5.78965 51.5614 3.34805 47.6903 9.66855L26.1553 44.8285V86.8015H75.2143C77.4291 86.8015 79.519 85.489 79.9565 83.2703L87.1713 46.5513C87.5073 44.8521 87.3666 43.4146 86.3393 42.0552H86.3354C85.351 40.774 84.0502 40.1372 82.4252 40.1372H54.4412C52.4256 40.1372 51.0536 38.1253 51.7372 36.262ZM20.3972 46.914H10.6863C8.49493 46.914 6.68243 48.7031 6.68243 50.9179V82.7969C6.68243 84.9961 8.49103 86.8008 10.6863 86.8008H20.3972V46.914ZM10.6863 41.1562H21.6703L42.7833 6.67925C50.088 -5.24675 67.5723 0.858946 63.0643 17.0152L58.2205 34.3782H82.4275C85.8181 34.3782 88.8298 35.8704 90.9041 38.5696H90.9002C92.9432 41.2337 93.451 44.4251 92.8143 47.6516L85.5995 84.3706C84.6308 89.3081 80.1307 92.562 75.2085 92.562H10.6855C5.30662 92.562 0.919922 88.1753 0.919922 82.7964L0.923828 50.9174C0.923828 45.5541 5.31133 41.1562 10.6863 41.1562Z" fill="#FFFBFB"/>
</svg>
