<svg width="40" height="40" viewBox="0 0 110 135" fill="none" xmlns="http://www.w3.org/2000/svg">
<path d="M18.625 60C18.625 64.918 22.625 68.918 27.543 68.918C32.461 68.918 36.461 64.918 36.461 60C36.461 55.082 32.461 51.082 27.543 51.082C22.625 51.082 18.625 55.082 18.625 60ZM27.543 53.168C31.3125 53.168 34.375 56.2305 34.375 60C34.375 63.7695 31.3125 66.832 27.543 66.832C23.7696 66.832 20.7071 63.7695 20.7071 60C20.7071 56.2305 23.7696 53.168 27.543 53.168Z" fill="#FFF9F9"/>
<path d="M46.082 60C46.082 64.918 50.082 68.918 55 68.918C59.918 68.918 63.918 64.918 63.918 60C63.918 55.082 59.918 51.082 55 51.082C50.082 51.082 46.082 55.082 46.082 60ZM61.832 60C61.832 63.7695 58.7695 66.832 55 66.832C51.2305 66.832 48.168 63.7695 48.168 60C48.168 56.2305 51.2305 53.168 55 53.168C58.7695 53.168 61.832 56.2305 61.832 60Z" fill="white"/>
<path d="M73.5195 60C73.5195 64.918 77.5195 68.918 82.4375 68.918C87.3555 68.918 91.3555 64.918 91.3555 60C91.3555 55.082 87.3555 51.082 82.4375 51.082C77.5195 51.082 73.5195 55.082 73.5195 60ZM89.2925 60C89.2925 63.7695 86.23 66.832 82.4605 66.832C78.691 66.832 75.6285 63.7695 75.6285 60C75.6285 56.2305 78.691 53.168 82.4605 53.168C86.23 53.168 89.2925 56.2305 89.2925 60Z" fill="#FFFBFB"/>
</svg>
